<?xml version="1.0" encoding="UTF-8" standalone="no"?>
<svg
   width="174"
   zoomAndPan="magnify"
   viewBox="0 0 1163.773 255.37399"
   height="46"
   preserveAspectRatio="xMidYMid"
   version="1.0"
   id="svg29"
   sodipodi:docname="encontre Já (2).svg"
   xmlns:inkscape="http://www.inkscape.org/namespaces/inkscape"
   xmlns:sodipodi="http://sodipodi.sourceforge.net/DTD/sodipodi-0.dtd"
   xmlns="http://www.w3.org/2000/svg"
   xmlns:svg="http://www.w3.org/2000/svg">
  <sodipodi:namedview
     id="namedview29"
     pagecolor="#505050"
     bordercolor="#eeeeee"
     borderopacity="1"
     inkscape:showpageshadow="0"
     inkscape:pageopacity="0"
     inkscape:pagecheckerboard="0"
     inkscape:deskcolor="#505050" />
  <defs
     id="defs1">
    <clipPath
       id="50b5e0475d">
      <path
         d="M 24.023438,190.48828 H 194.27344 v 240 H 24.023438 Z m 0,0"
         clip-rule="nonzero"
         id="path1" />
    </clipPath>
  </defs>
  <g
     fill="#36c6c6"
     fill-opacity="1"
     id="g4"
     transform="translate(-24.023437,-174.8242)">
    <g
       transform="translate(194.08783,337.21483)"
       id="g3">
      <g
         id="g2">
        <path
           d="m 67.3125,-109.17188 c 13.039062,0 23.601562,3.94922 31.6875,11.843755 8.08203,7.886719 12.125,19.261719 12.125,34.125 V 0 H 93.53125 v -60.65625 c 0,-10.695312 -2.679688,-18.878906 -8.03125,-24.546875 -5.34375,-5.675781 -12.648438,-8.515625 -21.90625,-8.515625 -9.398438,0 -16.867188,2.9375 -22.40625,8.8125 -5.542969,5.867188 -8.3125,14.40625 -8.3125,25.625 V 0 H 15.0625 V -107.21875 H 32.875 v 15.265625 c 3.519531,-5.476563 8.3125,-9.718755 14.375,-12.718755 6.0625,-3 12.75,-4.5 20.0625,-4.5 z m 0,0"
           id="path2" />
      </g>
    </g>
  </g>
  <g
     fill="#36c6c6"
     fill-opacity="1"
     id="g7"
     transform="translate(-24.023437,-174.8242)">
    <g
       transform="translate(319.30375,337.21483)"
       id="g6">
      <g
         id="g5">
        <path
           d="m 8.40625,-53.8125 c 0,-11.082031 2.21875,-20.765625 6.65625,-29.046875 4.4375,-8.28125 10.597656,-14.703125 18.484375,-19.265625 7.894531,-4.57031 16.929687,-6.85938 27.109375,-6.85938 13.175781,0 24.035156,3.19922 32.578125,9.593755 8.539065,6.386719 14.179685,15.257813 16.921875,26.609375 H 90.984375 C 89.148438,-79.300781 85.59375,-84.453125 80.3125,-88.234375 c -5.28125,-3.789063 -11.835938,-5.6875 -19.65625,-5.6875 -10.179688,0 -18.398438,3.492187 -24.65625,10.46875 -6.261719,6.980469 -9.390625,16.859375 -9.390625,29.640625 0,12.917969 3.128906,22.902344 9.390625,29.953125 6.257812,7.042969 14.476562,10.5625 24.65625,10.5625 7.820312,0 14.34375,-1.828125 19.5625,-5.484375 5.21875,-3.65625 8.804688,-8.875 10.765625,-15.65625 h 19.171875 c -2.875,10.960938 -8.62109,19.734375 -17.234375,26.328125 -8.605469,6.585937 -19.359375,9.875 -32.265625,9.875 -10.179688,0 -19.214844,-2.28125 -27.109375,-6.84375 C 25.660156,-9.648438 19.5,-16.109375 15.0625,-24.453125 10.625,-32.804688 8.40625,-42.59375 8.40625,-53.8125 Z m 0,0"
           id="path4" />
      </g>
    </g>
  </g>
  <g
     fill="#36c6c6"
     fill-opacity="1"
     id="g10"
     transform="translate(-24.023437,-174.8242)">
    <g
       transform="translate(438.06323,337.21483)"
       id="g9">
      <g
         id="g8">
        <path
           d="m 61.828125,1.765625 c -10.042969,0 -19.140625,-2.28125 -27.296875,-6.84375 -8.148438,-4.570313 -14.539062,-11.0625 -19.171875,-19.46875 C 10.722656,-32.960938 8.40625,-42.71875 8.40625,-53.8125 c 0,-10.945312 2.378906,-20.628906 7.140625,-29.046875 4.769531,-8.414063 11.257813,-14.875 19.46875,-19.375005 8.21875,-4.5 17.414063,-6.75 27.59375,-6.75 10.175781,0 19.375,2.25 27.59375,6.75 8.21875,4.500005 14.707035,10.929692 19.468755,19.281255 4.75781,8.34375 7.14062,18.058594 7.14062,29.140625 0,11.09375 -2.44922,20.851562 -7.34375,29.265625 -4.89844,8.40625 -11.515625,14.898437 -19.859375,19.46875 -8.34375,4.5625 -17.605469,6.84375 -27.78125,6.84375 z m 0,-15.65625 c 6.394531,0 12.394531,-1.5 18,-4.5 5.601563,-3 10.132813,-7.5 13.59375,-13.5 3.457031,-6 5.1875,-13.304687 5.1875,-21.921875 0,-8.601562 -1.699219,-15.90625 -5.09375,-21.90625 -3.386719,-6 -7.820313,-10.46875 -13.296875,-13.40625 -5.480469,-2.9375 -11.414062,-4.40625 -17.796875,-4.40625 -6.53125,0 -12.507813,1.46875 -17.921875,4.40625 -5.40625,2.9375 -9.742188,7.40625 -13,13.40625 -3.261719,6 -4.890625,13.304688 -4.890625,21.90625 0,8.742188 1.597656,16.109375 4.796875,22.109375 3.195312,6 7.46875,10.46875 12.8125,13.40625 5.34375,2.9375 11.210938,4.40625 17.609375,4.40625 z m 0,0"
           id="path7" />
      </g>
    </g>
  </g>
  <g
     fill="#36c6c6"
     fill-opacity="1"
     id="g13"
     transform="translate(-24.023437,-174.8242)">
    <g
       transform="translate(563.27914,337.21483)"
       id="g12">
      <g
         id="g11">
        <path
           d="m 67.3125,-109.17188 c 13.039062,0 23.601562,3.94922 31.6875,11.843755 8.08203,7.886719 12.125,19.261719 12.125,34.125 V 0 H 93.53125 v -60.65625 c 0,-10.695312 -2.679688,-18.878906 -8.03125,-24.546875 -5.34375,-5.675781 -12.648438,-8.515625 -21.90625,-8.515625 -9.398438,0 -16.867188,2.9375 -22.40625,8.8125 -5.542969,5.867188 -8.3125,14.40625 -8.3125,25.625 V 0 H 15.0625 V -107.21875 H 32.875 v 15.265625 c 3.519531,-5.476563 8.3125,-9.718755 14.375,-12.718755 6.0625,-3 12.75,-4.5 20.0625,-4.5 z m 0,0"
           id="path10" />
      </g>
    </g>
  </g>
  <g
     fill="#36c6c6"
     fill-opacity="1"
     id="g16"
     transform="translate(-24.023437,-174.8242)">
    <g
       transform="translate(688.49505,337.21483)"
       id="g15">
      <g
         id="g14">
        <path
           d="m 36.78125,-92.546875 v 63.203125 c 0,5.21875 1.109375,8.90625 3.328125,11.0625 2.21875,2.148438 6.066406,3.21875 11.546875,3.21875 H 64.765625 V 0 H 48.71875 c -9.917969,0 -17.355469,-2.28125 -22.3125,-6.84375 -4.949219,-4.570312 -7.421875,-12.070312 -7.421875,-22.5 V -92.546875 H 5.09375 v -14.671875 h 13.890625 v -27 H 36.78125 v 27 h 27.984375 v 14.671875 z m 0,0"
           id="path13" />
      </g>
    </g>
  </g>
  <g
     fill="#36c6c6"
     fill-opacity="1"
     id="g19"
     transform="translate(-24.023437,-174.8242)">
    <g
       transform="translate(759.71162,337.21483)"
       id="g18">
      <g
         id="g17">
        <path
           d="m 32.875,-89.8125 c 3.125,-6.125 7.585938,-10.87891 13.390625,-14.26563 5.8125,-3.39453 12.890625,-5.09375 21.234375,-5.09375 v 18.39063 h -4.6875 c -19.960938,0 -29.9375,10.824219 -29.9375,32.46875 V 0 H 15.0625 V -107.21875 H 32.875 Z m 0,0"
           id="path16" />
      </g>
    </g>
  </g>
  <g
     fill="#36c6c6"
     fill-opacity="1"
     id="g22"
     transform="translate(-24.023437,-174.8242)">
    <g
       transform="translate(832.68903,337.21483)"
       id="g21">
      <g
         id="g20">
        <path
           d="m 112.89063,-57.71875 c 0,3.398438 -0.19532,6.984375 -0.57813,10.765625 H 26.609375 c 0.65625,10.5625 4.273437,18.8125 10.859375,24.75 6.582031,5.9375 14.570312,8.90625 23.96875,8.90625 7.695312,0 14.117188,-1.789063 19.265625,-5.375 5.15625,-3.59375 8.773437,-8.390625 10.859375,-14.390625 h 19.17188 c -2.86719,10.304688 -8.60547,18.683594 -17.218755,25.140625 -8.605469,6.460937 -19.296875,9.6875 -32.078125,9.6875 -10.179688,0 -19.277344,-2.28125 -27.296875,-6.84375 C 26.117188,-9.648438 19.820312,-16.140625 15.25,-24.546875 10.6875,-32.960938 8.40625,-42.71875 8.40625,-53.8125 c 0,-11.082031 2.21875,-20.796875 6.65625,-29.140625 4.4375,-8.351563 10.664062,-14.78125 18.6875,-19.281255 8.019531,-4.5 17.25,-6.75 27.6875,-6.75 10.175781,0 19.175781,2.21875 27,6.65625 7.820312,4.437505 13.85156,10.539068 18.09375,18.29688 4.23828,7.761719 6.35938,16.53125 6.35938,26.3125 z M 94.5,-61.4375 c 0,-6.78125 -1.5,-12.613281 -4.5,-17.5 -3,-4.894531 -7.078125,-8.613281 -12.234375,-11.15625 -5.148437,-2.550781 -10.851563,-3.828125 -17.109375,-3.828125 -9,0 -16.667969,2.871094 -23,8.609375 -6.324219,5.742188 -9.9375,13.699219 -10.84375,23.875 z m 0,0"
           id="path19" />
      </g>
    </g>
  </g>
  <g
     fill="#ff5e01"
     fill-opacity="1"
     id="g25"
     transform="translate(-24.023437,-174.8242)">
    <g
       transform="translate(953.99217,337.21483)"
       id="g24">
      <g
         id="g23">
        <path
           d="m 98.21875,-137.34375 v 93.515625 c 0,14.480469 -4.078125,25.636719 -12.234375,33.46875 C 77.835938,-2.535156 66.847656,1.375 53.015625,1.375 38.546875,1.375 26.941406,-2.734375 18.203125,-10.953125 9.460938,-19.171875 5.09375,-30.847656 5.09375,-45.984375 h 33.25 c 0,5.742187 1.171875,10.078125 3.515625,13.015625 2.351563,2.9375 5.75,4.40625 10.1875,4.40625 4.039063,0 7.171875,-1.300781 9.390625,-3.90625 2.21875,-2.613281 3.328125,-6.398438 3.328125,-11.359375 v -93.515625 z m 0,0"
           id="path22" />
      </g>
    </g>
  </g>
  <g
     fill="#ff5e01"
     fill-opacity="1"
     id="g28"
     transform="translate(-24.023437,-174.8242)">
    <g
       transform="translate(1067.0778,337.21483)"
       id="g27">
      <g
         id="g26">
        <path
           d="m 5.484375,-54.78125 c 0,-11.21875 2.117187,-21.066406 6.359375,-29.546875 4.238281,-8.476563 10.007812,-15 17.3125,-19.562505 7.300781,-4.5625 15.453125,-6.84375 24.453125,-6.84375 7.695313,0 14.445313,1.57032 20.25,4.70313 5.800781,3.125 10.269531,7.230469 13.40625,12.3125 v -15.45313 H 120.71875 V 0 H 87.265625 V -15.453125 C 84.003906,-10.367188 79.46875,-6.257812 73.65625,-3.125 67.851562,0 61.109375,1.5625 53.421875,1.5625 44.546875,1.5625 36.457031,-0.75 29.15625,-5.375 21.851562,-10.007812 16.082031,-16.597656 11.84375,-25.140625 7.601562,-33.679688 5.484375,-43.5625 5.484375,-54.78125 Z m 81.78125,0.1875 c 0,-8.34375 -2.320313,-14.925781 -6.953125,-19.75 -4.625,-4.832031 -10.265625,-7.25 -16.921875,-7.25 -6.648437,0 -12.289063,2.382812 -16.921875,7.140625 -4.636719,4.761719 -6.953125,11.320313 -6.953125,19.671875 0,8.34375 2.316406,14.964844 6.953125,19.859375 4.632812,4.886719 10.273438,7.328125 16.921875,7.328125 6.65625,0 12.296875,-2.410156 16.921875,-7.234375 4.632812,-4.820313 6.953125,-11.410156 6.953125,-19.765625 z M 89.8125,-136.375 42.65625,-116.60938 v -23.09374 l 47.15625,-22.6875 z m 0,0"
           id="path25" />
      </g>
    </g>
  </g>
  <g
     clip-path="url(#50b5e0475d)"
     id="g29"
     transform="translate(-24.023437,-174.8242)">
    <path
       fill="#36c6c6"
       d="m 148.125,217.51172 c -9.62109,-6.13281 -19.74609,-9.71485 -31.11328,-10.33594 -10.73047,-0.58594 -21.203126,-0.19141 -31.320314,3.57813 -16.246094,6.04687 -28.65625,16.61328 -37.433594,31.63671 -8.042968,13.76172 -9.796874,28.67969 -8.597656,44.08985 0.960938,12.35156 5.644532,23.4414 12.675782,33.66797 8.355468,12.15234 16.421874,24.5 24.539062,36.82031 10.011719,15.20312 19.945312,30.46484 29.91797,45.69922 2.17578,3.32031 3.49219,3.39453 5.70312,0.23047 5.46094,-7.84375 10.65625,-15.85938 15.90235,-23.85157 8.77343,-13.38281 17.87109,-26.55859 26.8164,-39.82421 1.72657,-2.5625 3.44922,-5.1211 5.0586,-7.75 2.13672,-3.48829 1.16406,-4.96875 -2.75391,-5.39844 -5.54297,-0.61328 -9.66016,2.41015 -13.87109,5.01562 -6.53125,4.05078 -13.57422,6.32032 -21.125,7.31641 -10.73047,1.41016 -21.38672,0.87891 -31.214846,-3.73047 -37.363282,-17.51953 -38.847656,-59.12891 -23.015625,-82.63672 5.140625,-7.03515 11.355469,-12.9414 19.398437,-16.53515 19.996094,-8.92579 47.933594,-6.25782 64.550784,18.22656 4.71875,7.82031 7.25,16.29297 6.14843,25.42187 -1.01953,8.47266 -5.26171,13.66407 -14.42578,14.60157 -18.53125,1.90625 -37.08203,1.21875 -55.632809,0.67578 -2.832031,-0.0859 -5.605469,0.30468 -8.378906,0.57422 -2.742187,0.27343 -3.679687,2.17187 -2.539063,4.77734 5.671876,12.92578 15.535157,20.47266 29.453128,22.77734 8.78906,1.45313 17.33203,0.72657 25.42578,-3.16015 3.30078,-1.57813 6.44531,-3.50782 9.55469,-5.44141 7.76953,-4.83594 15.90625,-4.51562 24.22656,-1.90625 2.65234,0.82813 5.28125,1.63281 7.77344,3.01953 5.49609,3.05469 6.67187,9.90625 4.95703,15.51172 -2,6.52344 -6.73438,11.39844 -10.375,16.92969 -7.3125,11.11328 -14.69532,22.18359 -22.10157,33.23828 -7.13281,10.64844 -14.36328,21.23828 -21.49218,31.89453 -3.3711,5.04297 -6.38281,10.33594 -10.1836,15.08594 -2.74218,3.42187 -7.72265,3.26562 -10.10546,-0.34766 C 97.414062,416.60547 90.113281,405.93359 83.160156,395.02344 74.398438,381.28516 65.199219,367.82031 56.199219,354.23437 49.277344,343.77344 42.058594,333.5 35.574219,322.78125 c -5.664063,-9.38281 -9.28125,-19.62891 -10.351563,-30.70703 -0.433594,-4.49219 -1.039062,-8.94922 -1.171875,-13.48438 -0.285156,-10.10547 1.433594,-19.8789 4.421875,-29.47656 3.140625,-10.07031 8.53125,-18.81641 15.132813,-27.03125 C 52.226562,211.34766 63,203.60937 75.382812,198.07422 c 8.085938,-3.6211 16.65625,-5.75781 25.546878,-6.77344 8.14453,-0.92969 16.1875,-0.60156 24.17578,0.80469 9.88672,1.74219 19.35937,4.75 28.15234,9.88281 11.57422,6.76172 20.87891,15.76563 28.16797,26.91016 5.31641,8.14062 8.76563,16.99609 11.05859,26.49609 2.59375,10.74609 1.72657,21.49609 1.28907,32.22656 -0.19532,4.6211 -1.77735,9.26953 -3.92188,13.53125 -2.07812,4.15235 -6.3164,5.78907 -10.49609,4.16407 -3.95313,-1.53907 -5.75,-5.51172 -4.4375,-10.03907 1.03906,-3.58593 2.76172,-6.91406 3.29297,-10.73047 0.80078,-5.71484 1.27734,-11.30078 0.77343,-17.14062 -0.79687,-9.32031 -3.5039,-17.92188 -7.9375,-26.01172 -5.42968,-9.92187 -13.0625,-17.85156 -22.92187,-23.88281 m -72.277344,54.64453 c -1.457031,4.88281 0.08203,6.83594 5.246094,6.83594 12.363281,0.0117 24.73438,0.008 37.10547,0.008 6.47266,0 12.94922,0.043 19.41797,-0.0156 3.30078,-0.0234 5.82812,-2.48437 5.48828,-5.38671 -8.32422,-33.6836 -56.429689,-37.77735 -67.257814,-1.44141 z m 0,0"
       fill-opacity="1"
       fill-rule="nonzero"
       id="path28" />
  </g>
</svg>
